<svg xmlns="http://www.w3.org/2000/svg" width="832" height="428" viewBox="0 0 832 428" version="1.1"><path d="M 44 109.500 C 44 109.775, 44.225 110, 44.500 110 C 44.775 110, 45 109.775, 45 109.500 C 45 109.225, 44.775 109, 44.500 109 C 44.225 109, 44 109.225, 44 109.500 M 425.999 133.112 C 411.788 134.914, 398.834 141.918, 388.150 153.577 L 382.207 160.063 378.646 167.282 C 374.055 176.586, 372.033 185.370, 372.015 196.090 L 372 204.680 374.006 212.590 C 375.109 216.941, 377.409 223.357, 379.118 226.850 L 382.224 233.199 388.831 240.204 L 395.438 247.208 402.969 251.635 C 407.111 254.071, 413.650 257.057, 417.500 258.271 L 424.500 260.479 436.500 260.374 L 448.500 260.268 456.578 257.645 C 481.706 249.485, 496.603 228.307, 495.790 201.901 L 495.500 192.500 465.750 192.235 L 436 191.970 436 199.485 L 436 207 458.136 207 L 480.272 207 479.634 211.750 C 479.283 214.363, 477.651 219.247, 476.007 222.605 L 473.017 228.710 467.982 233.420 C 465.213 236.011, 459.921 239.554, 456.223 241.294 L 449.500 244.457 438.688 244.841 L 427.877 245.225 423.188 243.970 C 420.610 243.279, 415.894 241.356, 412.708 239.696 L 406.916 236.677 401.284 230.594 L 395.653 224.511 392.948 218.506 C 386.185 203.493, 386.610 187.414, 394.175 172.008 L 397.364 165.516 402.186 160.818 C 404.839 158.235, 409.861 154.717, 413.345 153.001 L 419.682 149.882 428.483 148.363 L 437.285 146.844 443.697 147.961 C 451.773 149.367, 459.670 153.077, 465.486 158.197 L 470.006 162.175 475.560 156.338 L 481.114 150.500 476.928 146.749 C 464.921 135.993, 445.114 130.689, 425.999 133.112 M 752.500 133.758 C 751.400 134.020, 749.274 135.104, 747.775 136.167 L 745.050 138.100 743.896 141.953 L 742.742 145.805 744.621 149.652 L 746.500 153.500 750.348 155.379 L 754.195 157.258 758.044 156.105 C 762.322 154.823, 765.539 151.376, 766.488 147.057 L 767.113 144.207 765.640 140.681 C 763.509 135.581, 757.702 132.521, 752.500 133.758 M 106 135.500 C 106 135.775, 106.225 136, 106.500 136 C 106.775 136, 107 135.775, 107 135.500 C 107 135.225, 106.775 135, 106.500 135 C 106.225 135, 106 135.225, 106 135.500 M 783.607 136.582 C 782.814 138.648, 782.814 254.352, 783.607 256.418 L 784.214 258 791.607 258 L 799 258 799 196.500 L 799 135 791.607 135 L 784.214 135 783.607 136.582 M 34 145.500 C 34 145.775, 34.225 146, 34.500 146 C 34.775 146, 35 145.775, 35 145.500 C 35 145.225, 34.775 145, 34.500 145 C 34.225 145, 34 145.225, 34 145.500 M 34.253 208 L 34.476 267.500 34.988 209.866 L 35.500 152.231 47.500 161.183 C 54.100 166.106, 60.818 171.117, 62.429 172.317 C 64.039 173.518, 70.114 178.132, 75.929 182.571 L 86.500 190.642 86.500 235.271 C 86.500 259.817, 86.833 279.568, 87.239 279.161 C 87.646 278.754, 88.096 258.639, 88.239 234.461 L 88.500 190.500 84 186.952 C 81.525 185.001, 77.638 182.076, 75.362 180.452 C 66.222 173.931, 35.453 150.494, 34.765 149.530 C 34.361 148.964, 34.131 175.275, 34.253 208 M 266.638 152.500 C 266.955 153.325, 267.391 154, 267.607 154 C 267.823 154, 268 153.325, 268 152.500 C 268 151.675, 267.564 151, 267.031 151 C 266.499 151, 266.322 151.675, 266.638 152.500 M 261.872 154.750 L 260.500 156.500 262.250 155.128 C 263.212 154.373, 264 153.585, 264 153.378 C 264 152.555, 263.179 153.084, 261.872 154.750 M 258.405 157.155 L 257.691 158.309 258.845 157.595 C 259.480 157.203, 260 156.684, 260 156.441 C 260 155.607, 259.117 156.002, 258.405 157.155 M 267 158.500 C 267 158.775, 267.225 159, 267.500 159 C 267.775 159, 268 158.775, 268 158.500 C 268 158.225, 267.775 158, 267.500 158 C 267.225 158, 267 158.225, 267 158.500 M 253.872 160.750 L 252.500 162.500 254.250 161.128 C 255.916 159.821, 256.445 159, 255.622 159 C 255.415 159, 254.627 159.787, 253.872 160.750 M 250.405 163.155 L 249.691 164.309 250.845 163.595 C 251.480 163.203, 252 162.684, 252 162.441 C 252 161.607, 251.117 162.002, 250.405 163.155 M 246.405 166.250 L 244.500 168.500 246.750 166.595 C 248.864 164.805, 249.455 164, 248.655 164 C 248.465 164, 247.453 165.012, 246.405 166.250 M 240.500 170.588 L 237.500 173.165 240.750 171.015 C 242.537 169.832, 244 168.669, 244 168.432 C 244 167.683, 243.577 167.944, 240.500 170.588 M 547.734 172.030 C 542.052 173.457, 536.873 176.392, 532.991 180.387 C 528.499 185.009, 528.170 184.937, 527.805 179.250 L 527.500 174.500 520.239 174.206 L 512.978 173.912 513.239 215.706 L 513.500 257.500 520.410 257.799 L 527.321 258.099 528.145 256.799 C 528.598 256.085, 528.976 243.942, 528.985 229.815 L 529 204.130 530.056 201.315 C 530.637 199.767, 532.263 196.827, 533.669 194.783 L 536.226 191.066 541.309 188.533 L 546.393 186 552.048 186 L 557.704 186 561.102 188.263 C 562.971 189.508, 565.400 192.320, 566.500 194.513 L 568.500 198.500 568.839 228.250 L 569.178 258 576.589 258 L 584 258 584.161 256.750 C 584.250 256.063, 584.391 244.025, 584.475 230 L 584.626 204.500 585.869 201.500 C 586.553 199.850, 588.263 196.827, 589.669 194.783 L 592.226 191.066 597.309 188.533 L 602.393 186 607.228 186 C 616.995 186, 621.662 189.771, 623.653 199.271 L 624.958 205.500 624.979 231.750 L 625 258 632.393 258 L 639.786 258 640.393 256.418 C 643.103 249.356, 640.379 195.077, 636.910 187.013 L 634.721 181.925 630.411 178.130 C 617.887 167.107, 596.541 169.292, 584.189 182.863 L 580.878 186.500 580.309 185.108 C 576.536 175.893, 559.533 169.066, 547.734 172.030 M 678.760 172.491 C 660.214 177.203, 653.189 186.211, 663.345 192.256 L 669.655 196.011 673.956 192.041 C 679.222 187.179, 683.641 185.569, 691.607 185.610 L 697.713 185.642 702.379 188.376 C 707.673 191.479, 711.483 196.737, 712.443 202.267 C 713.377 207.646, 712.726 208.016, 706.005 205.925 C 680.105 197.863, 655.414 208.901, 653.289 229.491 L 652.748 234.726 654.534 240.103 L 656.320 245.480 661.920 251.080 L 667.520 256.680 673.010 258.542 L 678.500 260.404 686.006 260.439 L 693.512 260.474 699.166 257.707 C 702.276 256.185, 706.435 253.154, 708.408 250.970 C 712.970 245.921, 713 245.931, 713 252.544 L 713 258.088 720.250 257.794 L 727.500 257.500 727.500 227.500 L 727.500 197.500 725.696 192.329 C 724.704 189.486, 722.151 185.181, 720.022 182.763 L 716.153 178.366 709.110 175.120 L 702.068 171.875 693.284 171.453 L 684.500 171.032 678.760 172.491 M 233.872 175.750 L 232.500 177.500 234.250 176.128 C 235.916 174.821, 236.445 174, 235.622 174 C 235.415 174, 234.627 174.787, 233.872 175.750 M 747.239 215.750 L 747.500 257.500 755 257.500 L 762.500 257.500 762.761 215.750 L 763.022 174 755 174 L 746.978 174 747.239 215.750 M 230.405 178.155 L 229.691 179.309 230.845 178.595 C 231.480 178.203, 232 177.684, 232 177.441 C 232 176.607, 231.117 177.002, 230.405 178.155 M 226.872 180.750 L 225.500 182.500 227.250 181.128 C 228.916 179.821, 229.445 179, 228.622 179 C 228.415 179, 227.627 179.787, 226.872 180.750 M 223 183.500 C 223 183.775, 223.225 184, 223.500 184 C 223.775 184, 224 183.775, 224 183.500 C 224 183.225, 223.775 183, 223.500 183 C 223.225 183, 223 183.225, 223 183.500 M 218.872 186.750 L 217.500 188.500 219.500 187.033 C 220.600 186.226, 221.688 185.439, 221.917 185.283 C 222.146 185.127, 221.863 185, 221.289 185 C 220.715 185, 219.627 185.787, 218.872 186.750 M 214.441 189.468 C 213.374 190.276, 213 190.951, 213.611 190.968 L 214.723 191 214.357 193.750 C 213.984 196.549, 214.467 195.682, 216.026 190.750 C 217.036 187.556, 217.004 187.530, 214.441 189.468 M 214.079 201.583 L 214.158 203.500 214.683 202.188 C 214.972 201.466, 214.936 200.603, 214.604 200.271 C 214.272 199.939, 214.036 200.529, 214.079 201.583 M 682.765 217.531 L 678.030 219.052 674.015 222.871 L 670 226.690 670 231.810 L 670 236.930 673.106 240.468 L 676.212 244.006 681.660 245.590 L 687.108 247.173 692.022 245.995 C 701.524 243.715, 708.971 237.092, 711.491 228.678 L 712.742 224.500 711.948 222.370 L 711.153 220.240 706.327 218.558 C 703.672 217.633, 698.350 216.681, 694.500 216.443 L 687.500 216.010 682.765 217.531 M 267 267 C 267 267.733, 267.300 268.033, 267.667 267.667 C 268.033 267.300, 268.033 266.700, 267.667 266.333 C 267.300 265.967, 267 266.267, 267 267 M 266 270.500 C 266 270.775, 266.225 271, 266.500 271 C 266.775 271, 267 270.775, 267 270.500 C 267 270.225, 266.775 270, 266.500 270 C 266.225 270, 266 270.225, 266 270.500 M 36 272.313 C 36 272.485, 37.462 273.948, 39.250 275.563 L 42.500 278.500 39.563 275.250 C 36.825 272.221, 36 271.540, 36 272.313 M 265 272.500 C 265 272.775, 265.225 273, 265.500 273 C 265.775 273, 266 272.775, 266 272.500 C 266 272.225, 265.775 272, 265.500 272 C 265.225 272, 265 272.225, 265 272.500 M 43 278.500 C 43 278.775, 43.225 279, 43.500 279 C 43.775 279, 44 278.775, 44 278.500 C 44 278.225, 43.775 278, 43.500 278 C 43.225 278, 43 278.225, 43 278.500 M 258 278.500 C 258 278.775, 258.225 279, 258.500 279 C 258.775 279, 259 278.775, 259 278.500 C 259 278.225, 258.775 278, 258.500 278 C 258.225 278, 258 278.225, 258 278.500 M 45 279.500 C 45 279.775, 45.225 280, 45.500 280 C 45.775 280, 46 279.775, 46 279.500 C 46 279.225, 45.775 279, 45.500 279 C 45.225 279, 45 279.225, 45 279.500 M 215 279.500 C 215 279.775, 215.225 280, 215.500 280 C 215.775 280, 216 279.775, 216 279.500 C 216 279.225, 215.775 279, 215.500 279 C 215.225 279, 215 279.225, 215 279.500 M 256 279.500 C 256 279.775, 256.225 280, 256.500 280 C 256.775 280, 257 279.775, 257 279.500 C 257 279.225, 256.775 279, 256.500 279 C 256.225 279, 256 279.225, 256 279.500" stroke="none" fill="#7a7a7a" fill-rule="evenodd"/><path d="M 244.500 168.065 C 223.710 183.773, 220.697 186.039, 217.266 188.547 L 215.500 189.838 215.500 234.669 L 215.500 279.500 234.500 279.799 L 253.500 280.098 257.313 278.868 C 261.848 277.405, 265.530 273.342, 266.964 268.219 L 268.004 264.500 267.970 209.749 C 267.938 158.216, 267.737 151.853, 266.143 152.100 C 265.789 152.154, 256.050 159.339, 244.500 168.065" stroke="none" fill="#02ab49" fill-rule="evenodd"/><path d="M 52.333 105.667 C 52.700 106.033, 53.300 106.033, 53.667 105.667 C 54.033 105.300, 53.733 105, 53 105 C 52.267 105, 51.967 105.300, 52.333 105.667 M 63 105.500 C 63 105.775, 63.225 106, 63.500 106 C 63.775 106, 64 105.775, 64 105.500 C 64 105.225, 63.775 105, 63.500 105 C 63.225 105, 63 105.225, 63 105.500 M 237.302 105.907 C 234.505 106.623, 222.252 114.788, 216.500 119.768 L 214.500 121.500 215 155.339 L 215.500 189.179 240.500 170.491 C 254.250 160.213, 266.063 151.575, 266.750 151.295 L 268 150.786 268 138.575 L 268 126.363 266.489 121.432 C 264.740 115.726, 261.933 112.245, 256.123 108.578 L 251.989 105.968 246.245 105.528 C 243.085 105.286, 239.061 105.456, 237.302 105.907 M 49 106.500 C 49 106.775, 49.225 107, 49.500 107 C 49.775 107, 50 106.775, 50 106.500 C 50 106.225, 49.775 106, 49.500 106 C 49.225 106, 49 106.225, 49 106.500 M 66 106.500 C 66 106.775, 66.225 107, 66.500 107 C 66.775 107, 67 106.775, 67 106.500 C 67 106.225, 66.775 106, 66.500 106 C 66.225 106, 66 106.225, 66 106.500 M 47 107.500 C 47 107.775, 47.225 108, 47.500 108 C 47.775 108, 48 107.775, 48 107.500 C 48 107.225, 47.775 107, 47.500 107 C 47.225 107, 47 107.225, 47 107.500 M 45 108.500 C 45 108.775, 45.225 109, 45.500 109 C 45.775 109, 46 108.775, 46 108.500 C 46 108.225, 45.775 108, 45.500 108 C 45.225 108, 45 108.225, 45 108.500 M 40.405 112.250 L 38.500 114.500 40.750 112.595 C 41.987 111.547, 43 110.535, 43 110.345 C 43 109.545, 42.195 110.136, 40.405 112.250 M 73 110.500 C 73 110.775, 73.225 111, 73.500 111 C 73.775 111, 74 110.775, 74 110.500 C 74 110.225, 73.775 110, 73.500 110 C 73.225 110, 73 110.225, 73 110.500 M 76.500 113 C 76.840 113.550, 77.343 114, 77.618 114 C 77.893 114, 77.840 113.550, 77.500 113 C 77.160 112.450, 76.657 112, 76.382 112 C 76.107 112, 76.160 112.450, 76.500 113 M 80.500 116 C 80.840 116.550, 81.343 117, 81.618 117 C 81.893 117, 81.840 116.550, 81.500 116 C 81.160 115.450, 80.657 115, 80.382 115 C 80.107 115, 80.160 115.450, 80.500 116 M 37 116.500 C 37 116.775, 37.225 117, 37.500 117 C 37.775 117, 38 116.775, 38 116.500 C 38 116.225, 37.775 116, 37.500 116 C 37.225 116, 37 116.225, 37 116.500 M 36 118.500 C 36 118.775, 36.225 119, 36.500 119 C 36.775 119, 37 118.775, 37 118.500 C 37 118.225, 36.775 118, 36.500 118 C 36.225 118, 36 118.225, 36 118.500 M 85 119.500 C 85 119.775, 85.225 120, 85.500 120 C 85.775 120, 86 119.775, 86 119.500 C 86 119.225, 85.775 119, 85.500 119 C 85.225 119, 85 119.225, 85 119.500 M 88 121.378 C 88 121.585, 88.787 122.373, 89.750 123.128 L 91.500 124.500 90.128 122.750 C 88.821 121.084, 88 120.555, 88 121.378 M 211.405 123.155 L 210.691 124.309 211.845 123.595 C 212.998 122.883, 213.393 122, 212.559 122 C 212.316 122, 211.797 122.520, 211.405 123.155 M 34.079 125.583 L 34.158 127.500 34.683 126.188 C 34.972 125.466, 34.936 124.603, 34.604 124.271 C 34.272 123.939, 34.036 124.529, 34.079 125.583 M 92 124.378 C 92 124.585, 92.787 125.373, 93.750 126.128 L 95.500 127.500 94.128 125.750 C 92.821 124.084, 92 123.555, 92 124.378 M 206.872 126.750 L 205.500 128.500 207.250 127.128 C 208.213 126.373, 209 125.585, 209 125.378 C 209 124.555, 208.179 125.084, 206.872 126.750 M 96 127.378 C 96 127.585, 96.787 128.373, 97.750 129.128 L 99.500 130.500 98.128 128.750 C 96.821 127.084, 96 126.555, 96 127.378 M 203.405 129.155 L 202.691 130.309 203.845 129.595 C 204.480 129.203, 205 128.684, 205 128.441 C 205 127.607, 204.117 128.002, 203.405 129.155 M 101.500 132 C 101.840 132.550, 102.343 133, 102.618 133 C 102.893 133, 102.840 132.550, 102.500 132 C 102.160 131.450, 101.657 131, 101.382 131 C 101.107 131, 101.160 131.450, 101.500 132 M 199.405 132.155 L 198.691 133.309 199.845 132.595 C 200.480 132.203, 201 131.684, 201 131.441 C 201 130.607, 200.117 131.002, 199.405 132.155 M 105 134.500 C 105 134.775, 105.225 135, 105.500 135 C 105.775 135, 106 134.775, 106 134.500 C 106 134.225, 105.775 134, 105.500 134 C 105.225 134, 105 134.225, 105 134.500 M 195.405 135.155 L 194.691 136.309 195.845 135.595 C 196.480 135.203, 197 134.684, 197 134.441 C 197 133.607, 196.117 134.002, 195.405 135.155 M 108 136.378 C 108 136.585, 108.787 137.373, 109.750 138.128 L 111.500 139.500 110.128 137.750 C 108.821 136.084, 108 135.555, 108 136.378 M 191.405 138.155 L 190.691 139.309 191.845 138.595 C 192.480 138.203, 193 137.684, 193 137.441 C 193 136.607, 192.117 137.002, 191.405 138.155 M 112 139.378 C 112 139.585, 112.787 140.373, 113.750 141.128 L 115.500 142.500 114.128 140.750 C 112.821 139.084, 112 138.555, 112 139.378 M 187.405 141.155 L 186.691 142.309 187.845 141.595 C 188.480 141.203, 189 140.684, 189 140.441 C 189 139.607, 188.117 140.002, 187.405 141.155 M 116 142.378 C 116 142.585, 116.787 143.373, 117.750 144.128 L 119.500 145.500 118.128 143.750 C 116.821 142.084, 116 141.555, 116 142.378 M 183.405 144.155 L 182.691 145.309 183.845 144.595 C 184.480 144.203, 185 143.684, 185 143.441 C 185 142.607, 184.117 143.002, 183.405 144.155 M 120.500 146 C 120.840 146.550, 121.343 147, 121.618 147 C 121.893 147, 121.840 146.550, 121.500 146 C 121.160 145.450, 120.657 145, 120.382 145 C 120.107 145, 120.160 145.450, 120.500 146 M 179.405 147.155 L 178.691 148.309 179.845 147.595 C 180.480 147.203, 181 146.684, 181 146.441 C 181 145.607, 180.117 146.002, 179.405 147.155 M 125.500 150 C 125.840 150.550, 126.343 151, 126.618 151 C 126.893 151, 126.840 150.550, 126.500 150 C 126.160 149.450, 125.657 149, 125.382 149 C 125.107 149, 125.160 149.450, 125.500 150 M 175.405 150.155 L 174.691 151.309 175.845 150.595 C 176.480 150.203, 177 149.684, 177 149.441 C 177 148.607, 176.117 149.002, 175.405 150.155 M 128.500 152 C 128.840 152.550, 129.343 153, 129.618 153 C 129.893 153, 129.840 152.550, 129.500 152 C 129.160 151.450, 128.657 151, 128.382 151 C 128.107 151, 128.160 151.450, 128.500 152 M 171.405 153.155 L 170.691 154.309 171.845 153.595 C 172.480 153.203, 173 152.684, 173 152.441 C 173 151.607, 172.117 152.002, 171.405 153.155 M 132.500 155 C 133.495 156.100, 134.535 157, 134.810 157 C 135.085 157, 134.495 156.100, 133.500 155 C 132.505 153.900, 131.465 153, 131.190 153 C 130.915 153, 131.505 153.900, 132.500 155 M 167.405 156.155 L 166.691 157.309 167.845 156.595 C 168.480 156.203, 169 155.684, 169 155.441 C 169 154.607, 168.117 155.002, 167.405 156.155 M 136 157.378 C 136 157.585, 136.787 158.373, 137.750 159.128 L 139.500 160.500 138.128 158.750 C 136.821 157.084, 136 156.555, 136 157.378 M 163.872 158.750 L 162.500 160.500 164.250 159.128 C 165.916 157.821, 166.445 157, 165.622 157 C 165.415 157, 164.627 157.787, 163.872 158.750 M 141.500 162 C 141.840 162.550, 142.343 163, 142.618 163 C 142.893 163, 142.840 162.550, 142.500 162 C 142.160 161.450, 141.657 161, 141.382 161 C 141.107 161, 141.160 161.450, 141.500 162 M 159.405 162.155 L 158.691 163.309 159.845 162.595 C 160.480 162.203, 161 161.684, 161 161.441 C 161 160.607, 160.117 161.002, 159.405 162.155 M 144 163.378 C 144 163.585, 144.787 164.373, 145.750 165.128 L 147.500 166.500 146.128 164.750 C 144.821 163.084, 144 162.555, 144 163.378 M 155.405 165.155 L 154.691 166.309 155.845 165.595 C 156.480 165.203, 157 164.684, 157 164.441 C 157 163.607, 156.117 164.002, 155.405 165.155 M 148.500 167 C 148.840 167.550, 149.343 168, 149.618 168 C 149.893 168, 149.840 167.550, 149.500 167 C 149.160 166.450, 148.657 166, 148.382 166 C 148.107 166, 148.160 166.450, 148.500 167 M 152.405 167.155 L 151.691 168.309 152.845 167.595 C 153.480 167.203, 154 166.684, 154 166.441 C 154 165.607, 153.117 166.002, 152.405 167.155 M 211.405 192.155 L 210.691 193.309 211.845 192.595 C 212.480 192.203, 213 191.684, 213 191.441 C 213 190.607, 212.117 191.002, 211.405 192.155 M 90 192.500 C 90 192.775, 90.225 193, 90.500 193 C 90.775 193, 91 192.775, 91 192.500 C 91 192.225, 90.775 192, 90.500 192 C 90.225 192, 90 192.225, 90 192.500 M 93.500 195 C 93.840 195.550, 94.343 196, 94.618 196 C 94.893 196, 94.840 195.550, 94.500 195 C 94.160 194.450, 93.657 194, 93.382 194 C 93.107 194, 93.160 194.450, 93.500 195 M 206.872 195.750 L 205.500 197.500 207.250 196.128 C 208.916 194.821, 209.445 194, 208.622 194 C 208.415 194, 207.627 194.787, 206.872 195.750 M 97.500 198 C 98.495 199.100, 99.535 200, 99.810 200 C 100.085 200, 99.495 199.100, 98.500 198 C 97.505 196.900, 96.465 196, 96.190 196 C 95.915 196, 96.505 196.900, 97.500 198 M 202.872 198.750 L 201.500 200.500 203.250 199.128 C 204.916 197.821, 205.445 197, 204.622 197 C 204.415 197, 203.627 197.787, 202.872 198.750 M 101 200.378 C 101 200.585, 101.787 201.373, 102.750 202.128 L 104.500 203.500 103.128 201.750 C 101.821 200.084, 101 199.555, 101 200.378 M 198.872 201.750 L 197.500 203.500 199.250 202.128 C 200.916 200.821, 201.445 200, 200.622 200 C 200.415 200, 199.627 200.787, 198.872 201.750 M 105.500 204 C 105.840 204.550, 106.343 205, 106.618 205 C 106.893 205, 106.840 204.550, 106.500 204 C 106.160 203.450, 105.657 203, 105.382 203 C 105.107 203, 105.160 203.450, 105.500 204 M 194.405 205.155 L 193.691 206.309 194.845 205.595 C 195.480 205.203, 196 204.684, 196 204.441 C 196 203.607, 195.117 204.002, 194.405 205.155 M 109.500 207 C 109.840 207.550, 110.343 208, 110.618 208 C 110.893 208, 110.840 207.550, 110.500 207 C 110.160 206.450, 109.657 206, 109.382 206 C 109.107 206, 109.160 206.450, 109.500 207 M 190.405 208.155 L 189.691 209.309 190.845 208.595 C 191.480 208.203, 192 207.684, 192 207.441 C 192 206.607, 191.117 207.002, 190.405 208.155 M 113.500 210 C 113.840 210.550, 114.343 211, 114.618 211 C 114.893 211, 114.840 210.550, 114.500 210 C 114.160 209.450, 113.657 209, 113.382 209 C 113.107 209, 113.160 209.450, 113.500 210 M 186.872 210.750 L 185.500 212.500 187.250 211.128 C 188.916 209.821, 189.445 209, 188.622 209 C 188.415 209, 187.627 209.787, 186.872 210.750 M 117 212.378 C 117 212.585, 117.787 213.373, 118.750 214.128 L 120.500 215.500 119.128 213.750 C 117.821 212.084, 117 211.555, 117 212.378 M 183.405 213.155 L 182.691 214.309 183.845 213.595 C 184.480 213.203, 185 212.684, 185 212.441 C 185 211.607, 184.117 212.002, 183.405 213.155 M 121 215.378 C 121 215.585, 121.787 216.373, 122.750 217.128 L 124.500 218.500 123.128 216.750 C 121.821 215.084, 121 214.555, 121 215.378 M 178.872 216.750 L 177.500 218.500 179.250 217.128 C 180.916 215.821, 181.445 215, 180.622 215 C 180.415 215, 179.627 215.787, 178.872 216.750 M 125.500 219 C 125.840 219.550, 126.343 220, 126.618 220 C 126.893 220, 126.840 219.550, 126.500 219 C 126.160 218.450, 125.657 218, 125.382 218 C 125.107 218, 125.160 218.450, 125.500 219 M 174.872 219.750 L 173.500 221.500 175.250 220.128 C 176.916 218.821, 177.445 218, 176.622 218 C 176.415 218, 175.627 218.787, 174.872 219.750 M 129.500 222 C 129.840 222.550, 130.343 223, 130.618 223 C 130.893 223, 130.840 222.550, 130.500 222 C 130.160 221.450, 129.657 221, 129.382 221 C 129.107 221, 129.160 221.450, 129.500 222 M 170.872 222.750 L 169.500 224.500 171.250 223.128 C 172.916 221.821, 173.445 221, 172.622 221 C 172.415 221, 171.627 221.787, 170.872 222.750 M 133.500 225 C 133.840 225.550, 134.343 226, 134.618 226 C 134.893 226, 134.840 225.550, 134.500 225 C 134.160 224.450, 133.657 224, 133.382 224 C 133.107 224, 133.160 224.450, 133.500 225 M 167.405 225.155 L 166.691 226.309 167.845 225.595 C 168.480 225.203, 169 224.684, 169 224.441 C 169 223.607, 168.117 224.002, 167.405 225.155 M 137.500 228 C 137.840 228.550, 138.343 229, 138.618 229 C 138.893 229, 138.840 228.550, 138.500 228 C 138.160 227.450, 137.657 227, 137.382 227 C 137.107 227, 137.160 227.450, 137.500 228 M 162.872 228.750 L 161.500 230.500 163.250 229.128 C 164.916 227.821, 165.445 227, 164.622 227 C 164.415 227, 163.627 227.787, 162.872 228.750 M 141.500 231 C 141.840 231.550, 142.343 232, 142.618 232 C 142.893 232, 142.840 231.550, 142.500 231 C 142.160 230.450, 141.657 230, 141.382 230 C 141.107 230, 141.160 230.450, 141.500 231 M 159.405 231.155 L 158.691 232.309 159.845 231.595 C 160.480 231.203, 161 230.684, 161 230.441 C 161 229.607, 160.117 230.002, 159.405 231.155 M 145.500 234 C 145.840 234.550, 146.343 235, 146.618 235 C 146.893 235, 146.840 234.550, 146.500 234 C 146.160 233.450, 145.657 233, 145.382 233 C 145.107 233, 145.160 233.450, 145.500 234 M 155.405 234.155 L 154.691 235.309 155.845 234.595 C 156.480 234.203, 157 233.684, 157 233.441 C 157 232.607, 156.117 233.002, 155.405 234.155 M 148.500 236 C 148.840 236.550, 149.343 237, 149.618 237 C 149.893 237, 149.840 236.550, 149.500 236 C 149.160 235.450, 148.657 235, 148.382 235 C 148.107 235, 148.160 235.450, 148.500 236" stroke="none" fill="#fdbf00" fill-rule="evenodd"/><path d="M 56.264 105.718 C 57.784 105.947, 60.034 105.941, 61.264 105.704 C 62.494 105.467, 61.250 105.279, 58.500 105.286 C 55.750 105.294, 54.744 105.488, 56.264 105.718 M 45.946 108.849 C 43.501 110.415, 40.607 112.778, 39.516 114.099 L 37.531 116.500 40.516 113.821 C 42.157 112.348, 45.525 109.991, 48 108.583 C 50.475 107.176, 52.026 106.019, 51.446 106.012 C 50.866 106.005, 48.391 107.282, 45.946 108.849 M 65 106.500 C 65 106.775, 65.225 107, 65.500 107 C 65.775 107, 66 106.775, 66 106.500 C 66 106.225, 65.775 106, 65.500 106 C 65.225 106, 65 106.225, 65 106.500 M 67 107.418 C 67 107.765, 68.013 108.472, 69.250 108.989 C 70.487 109.505, 73.638 111.562, 76.250 113.560 C 78.862 115.557, 81 116.978, 81 116.716 C 81 116.049, 70.331 108.064, 68.503 107.363 C 67.676 107.046, 67 107.070, 67 107.418 M 37 117.500 C 37 117.775, 37.225 118, 37.500 118 C 37.775 118, 38 117.775, 38 117.500 C 38 117.225, 37.775 117, 37.500 117 C 37.225 117, 37 117.225, 37 117.500 M 82 117.378 C 82 117.585, 82.787 118.373, 83.750 119.128 L 85.500 120.500 84.128 118.750 C 82.821 117.084, 82 116.555, 82 117.378 M 36 119.500 C 36 119.775, 36.225 120, 36.500 120 C 36.775 120, 37 119.775, 37 119.500 C 37 119.225, 36.775 119, 36.500 119 C 36.225 119, 36 119.225, 36 119.500 M 86.788 154.955 L 87.076 189.411 89.288 191.157 C 96.938 197.197, 149.458 236.238, 150.441 236.616 C 151.551 237.042, 206.032 197.006, 212.250 191.196 L 215 188.626 215 155.313 C 215 136.991, 214.722 122, 214.382 122 C 214.042 122, 200.087 132.238, 183.370 144.750 C 166.654 157.262, 152.291 167.649, 151.453 167.830 C 150.615 168.012, 135.658 157.437, 118.215 144.330 L 86.500 120.500 86.788 154.955 M 35 122 C 35 122.733, 35.300 123.033, 35.667 122.667 C 36.033 122.300, 36.033 121.700, 35.667 121.333 C 35.300 120.967, 35 121.267, 35 122 M 34.360 136 C 34.360 141.225, 34.529 143.363, 34.735 140.750 C 34.941 138.137, 34.941 133.863, 34.735 131.250 C 34.529 128.637, 34.360 130.775, 34.360 136 M 34.079 147.583 L 34.158 149.500 34.683 148.188 C 34.972 147.466, 34.936 146.603, 34.604 146.271 C 34.272 145.939, 34.036 146.529, 34.079 147.583" stroke="none" fill="#ff4033" fill-rule="evenodd"/><path d="M 48 108.586 C 41.802 112.116, 39.051 114.818, 36.890 119.500 L 35.044 123.500 35.083 137 L 35.121 150.500 52.540 163.500 C 62.120 170.650, 72.388 178.300, 75.358 180.500 C 78.328 182.700, 82.162 185.543, 83.879 186.818 L 87 189.136 86.985 155.818 C 86.976 137.493, 86.639 122.021, 86.235 121.436 C 85.298 120.079, 71.450 110.059, 67.321 107.750 L 64.191 106 58.346 106.012 L 52.500 106.024 48 108.586" stroke="none" fill="#e71d18" fill-rule="evenodd"/><path d="M 35 210.875 L 35 269.994 38.511 273.880 C 40.442 276.018, 43.259 278.279, 44.772 278.906 L 47.523 280.045 67.011 279.772 L 86.500 279.500 86.500 235.071 L 86.500 190.641 75.929 182.571 C 70.114 178.132, 64.039 173.518, 62.429 172.317 C 60.818 171.117, 54.550 166.453, 48.500 161.955 C 42.450 157.456, 36.938 153.321, 36.250 152.765 L 35 151.755 35 210.875" stroke="none" fill="#0086f8" fill-rule="evenodd"/></svg>